<?xml version="1.0" standalone="no"?>
<!DOCTYPE svg PUBLIC "-//W3C//DTD SVG 20010904//EN"
 "http://www.w3.org/TR/2001/REC-SVG-20010904/DTD/svg10.dtd">
<svg version="1.0" xmlns="http://www.w3.org/2000/svg"
 width="460.000000pt" height="460.000000pt" viewBox="0 0 460.000000 460.000000"
 preserveAspectRatio="xMidYMid meet">
<metadata>
Created by potrace 1.14, written by Peter Selinger 2001-2017
</metadata>
<g transform="translate(0.000000,460.000000) scale(0.100000,-0.100000)"
fill="#000000" stroke="none">
<path d="M2205 4269 c-210 -6 -255 -15 -255 -49 0 -19 -6 -20 -125 -20 -114 0
-129 -2 -155 -22 -18 -13 -30 -31 -30 -45 0 -24 5 -23 -124 -28 -20 -1 -32 -8
-37 -22 -8 -23 -45 -33 -124 -33 -35 0 -57 -5 -65 -15 -7 -8 -19 -15 -27 -15
-8 0 -19 -13 -24 -30 -9 -25 -14 -28 -29 -20 -10 6 -40 10 -65 10 -46 0 -47 0
-44 -32 1 -18 -1 -47 -5 -65 -7 -30 -10 -32 -59 -35 -42 -2 -52 -6 -51 -20 1
-10 -5 -18 -13 -18 -8 0 -20 -13 -26 -29 -11 -31 -36 -44 -57 -31 -20 13 -41
0 -39 -24 3 -49 -1 -62 -23 -63 -13 -1 -24 -7 -26 -13 -2 -5 -8 -8 -13 -4 -5
3 -8 2 -7 -3 2 -5 -2 -15 -9 -23 -70 -85 -173 -233 -173 -249 0 -11 -5 -23
-10 -26 -13 -8 -42 -76 -35 -83 8 -8 -15 -42 -29 -42 -15 0 -36 -49 -36 -81 0
-11 5 -19 10 -19 6 0 10 -5 10 -10 0 -6 -7 -10 -16 -8 -11 2 -18 -5 -20 -20
-5 -32 -44 -105 -63 -118 -11 -9 -17 -38 -22 -113 -5 -76 -12 -110 -28 -137
-15 -25 -21 -52 -21 -93 0 -31 -4 -61 -10 -67 -10 -10 -10 -58 -7 -476 1 -147
4 -268 7 -270 3 -2 14 -8 25 -14 17 -9 20 -23 23 -85 3 -100 8 -117 35 -121
19 -3 22 -10 25 -54 3 -46 0 -54 -24 -73 -26 -21 -27 -22 -8 -36 10 -8 30 -18
44 -21 30 -8 70 -42 70 -61 0 -8 16 -23 35 -34 27 -16 35 -28 35 -49 0 -18 10
-38 30 -57 17 -15 33 -42 36 -60 6 -31 33 -51 53 -38 5 3 12 1 16 -5 3 -5 1
-10 -4 -10 -6 0 -11 -4 -11 -10 0 -5 6 -10 13 -10 15 0 115 -95 133 -126 11
-18 13 -17 23 10 7 16 19 35 29 42 14 11 15 16 4 31 -28 42 -33 65 -16 78 10
7 17 26 17 44 0 17 4 31 9 31 7 0 58 -74 58 -85 0 -21 38 -85 51 -85 22 0 59
-42 59 -67 0 -21 19 -38 121 -107 20 -14 58 -31 85 -39 48 -14 49 -15 49 -53
l0 -39 58 -3 c44 -2 57 -7 57 -19 0 -12 12 -14 68 -12 l67 4 -3 -30 c-2 -16 0
-27 4 -22 4 4 18 -3 31 -15 23 -22 37 -23 191 -19 13 1 22 7 22 16 0 12 15 15
79 15 75 0 80 -1 83 -22 4 -28 39 -36 58 -13 18 21 50 19 50 -4 0 -14 6 -17
24 -14 13 3 27 -1 31 -8 11 -17 -23 -40 -50 -33 -36 9 -75 -12 -75 -40 0 -14
-8 -30 -17 -35 -10 -5 -33 -34 -51 -64 -32 -54 -33 -56 -17 -86 8 -17 13 -31
10 -31 -3 0 1 -13 10 -30 9 -16 17 -30 20 -30 2 0 18 13 35 30 17 16 35 30 39
30 13 0 2 -37 -15 -51 -8 -7 -14 -31 -14 -60 0 -45 2 -49 34 -64 19 -9 37 -23
40 -31 3 -8 19 -14 38 -14 19 0 43 -7 56 -15 16 -12 27 -13 41 -5 30 15 48 12
54 -9 4 -15 12 -19 33 -18 24 2 29 7 28 27 -2 43 47 65 72 33 13 -17 16 -16
37 10 12 15 28 27 34 27 6 0 14 7 17 16 3 9 13 14 21 10 8 -3 33 1 54 9 22 7
60 12 85 10 25 -3 48 0 51 5 3 6 11 10 16 10 6 0 7 -4 4 -10 -9 -15 55 0 91
21 17 11 45 19 62 19 29 0 62 21 62 40 0 4 11 15 25 24 31 20 65 7 65 -25 0
-14 5 -19 18 -17 14 3 17 13 14 58 -2 52 0 57 36 95 21 22 42 51 45 65 16 59
47 65 47 9 0 -28 1 -29 50 -29 37 0 50 -4 50 -14 0 -8 12 -24 26 -35 21 -16
40 -21 86 -20 32 1 61 -1 64 -4 4 -3 -1 -20 -10 -38 -9 -18 -16 -42 -16 -54 0
-22 2 -22 92 -18 51 2 98 9 105 15 10 8 13 7 13 -5 0 -8 15 -20 33 -28 33 -13
96 -75 97 -95 0 -6 14 -17 32 -25 27 -11 29 -14 12 -20 -11 -5 -13 -8 -5 -8 8
-1 12 -4 9 -7 -7 -6 -83 13 -112 28 -12 6 -22 6 -29 -1 -6 -6 -19 -11 -28 -11
-13 0 -17 -8 -16 -35 l1 -35 204 0 c181 0 203 2 192 15 -7 8 -19 15 -26 15 -8
0 -14 7 -14 16 0 21 -73 94 -93 94 -8 0 -22 11 -30 24 -9 13 -36 33 -61 45
-25 11 -46 27 -46 35 0 29 -106 89 -120 67 -9 -15 -44 -16 -67 -1 -16 10 -19
18 -12 26 10 12 -4 18 -76 28 -11 2 -20 8 -20 13 0 13 -47 57 -66 61 -8 2 -24
5 -37 6 -12 2 -38 19 -56 39 -19 21 -47 40 -65 43 -37 8 -51 29 -51 78 0 23
-6 39 -17 46 -17 10 -16 12 5 26 17 13 22 26 22 61 0 51 -16 54 -38 9 -19 -38
-48 -31 -44 9 2 17 8 32 13 33 15 6 10 22 -6 22 -11 0 -15 12 -15 49 l0 50 38
3 c34 3 37 6 40 35 3 32 12 38 63 48 12 3 27 9 33 15 5 5 23 10 39 10 28 0 29
2 23 31 -6 34 21 92 49 103 8 3 18 20 23 38 7 28 13 34 41 36 l32 3 -5 -73
c-2 -40 -5 -74 -5 -75 -1 -2 -10 -3 -21 -3 -36 0 -54 -66 -25 -90 33 -27 8
-89 -42 -104 -11 -4 -29 -18 -38 -33 -15 -23 -16 -31 -4 -67 7 -23 15 -44 18
-48 8 -9 87 30 120 60 90 80 123 115 161 171 24 34 51 68 61 74 11 7 19 21 19
32 1 33 39 108 71 137 16 15 29 37 29 48 0 12 10 36 22 53 13 18 22 38 20 45
-2 7 4 19 13 28 8 8 15 22 15 30 0 21 8 17 46 -22 19 -20 34 -46 34 -58 0 -23
16 -53 24 -46 2 3 14 61 26 130 16 93 19 144 15 196 -4 40 -4 95 0 124 l7 52
35 -5 c30 -5 35 -3 43 19 11 29 13 97 3 107 -3 4 -8 107 -10 230 -2 122 -8
246 -13 276 -6 30 -10 106 -10 168 0 67 -4 113 -10 113 -26 0 -38 59 -41 201
-4 142 -5 147 -33 188 -16 23 -33 61 -37 84 -8 48 -47 160 -59 167 -4 3 -10
28 -14 55 -15 116 -18 125 -33 125 -11 0 -14 6 -10 21 3 11 -1 35 -8 52 -8 19
-14 25 -15 15 0 -26 -17 -22 -24 6 -4 18 -11 23 -26 19 -14 -4 -20 0 -20 11 0
9 7 16 15 16 44 0 3 88 -41 89 -16 1 -26 13 -38 44 -11 31 -51 80 -132 161
-95 97 -118 115 -130 106 -11 -10 -14 -9 -14 3 0 21 -22 32 -92 47 -32 6 -61
17 -65 23 -15 23 -285 116 -290 101 -6 -18 -87 -6 -105 16 -14 17 -28 20 -100
19 -45 -1 -96 -5 -113 -9 l-30 -8 31 -1 c20 -1 31 -6 31 -16 0 -8 -4 -15 -9
-15 -4 0 -8 -4 -8 -9 0 -4 28 -8 62 -7 58 1 62 -1 68 -24 6 -23 11 -25 61 -26
71 -1 97 -10 101 -37 2 -18 11 -23 41 -25 24 -2 43 2 53 12 15 16 63 13 74 -5
9 -13 59 -29 73 -23 8 3 20 -2 27 -11 7 -8 23 -15 36 -15 14 0 31 -11 44 -30
13 -18 30 -30 44 -30 13 0 40 -15 59 -34 20 -19 50 -37 67 -41 17 -4 35 -16
41 -27 6 -11 26 -34 45 -51 38 -33 68 -82 59 -97 -9 -15 25 -72 39 -67 19 7
36 -12 36 -40 0 -13 11 -34 25 -47 14 -13 25 -28 25 -33 0 -6 7 -16 15 -23 8
-7 15 -24 15 -39 0 -14 7 -39 15 -55 19 -36 20 -34 -17 -44 l-33 -9 31 -16
c18 -9 34 -27 38 -41 4 -18 14 -26 34 -28 31 -3 45 -44 18 -54 -20 -8 -21 -50
-2 -57 8 -3 21 -34 28 -69 12 -51 18 -64 36 -66 17 -3 22 -12 26 -55 7 -66 4
-127 -6 -127 -4 0 -8 -29 -8 -65 0 -36 4 -65 10 -65 5 0 12 -11 16 -24 3 -14
12 -23 22 -22 11 1 20 -11 26 -38 9 -33 7 -40 -8 -52 -24 -17 -36 -10 -29 17
5 19 3 18 -21 -6 -18 -18 -26 -34 -23 -47 7 -25 -12 -18 -32 12 -14 21 -14 23
-1 16 8 -4 6 0 -4 8 -11 9 -34 16 -52 16 -40 0 -49 -21 -40 -94 8 -63 10 -271
3 -283 -3 -5 -2 -24 1 -42 l7 -33 21 38 20 39 62 -3 62 -2 0 166 c0 128 3 165
13 162 9 -4 13 -79 15 -324 1 -175 0 -325 -3 -333 -4 -10 -9 -11 -17 -3 -6 6
-17 8 -24 5 -8 -3 -14 0 -14 6 0 6 6 11 13 11 6 0 13 12 14 27 l1 28 -15 -25
c-8 -14 -12 -17 -9 -7 3 10 6 28 6 40 0 18 2 19 10 7 8 -12 10 -10 10 8 0 13
-4 20 -10 17 -5 -3 -10 3 -10 14 0 11 5 23 10 26 6 3 10 19 10 35 0 23 -5 31
-22 34 -13 3 -36 8 -53 11 -94 20 -95 20 -90 -11 2 -16 7 -136 9 -266 3 -175
1 -238 -8 -238 -8 0 -7 -3 1 -8 17 -11 -20 -219 -47 -267 -11 -20 -20 -40 -20
-46 0 -5 -7 -26 -15 -46 -12 -29 -18 -33 -29 -23 -8 6 -25 10 -38 8 -18 -2
-24 -10 -26 -38 -3 -23 2 -38 13 -46 14 -10 14 -15 4 -32 -7 -11 -22 -25 -34
-30 -11 -5 -27 -22 -35 -38 -8 -16 -19 -32 -25 -36 -13 -10 -21 104 -17 245 3
98 5 107 23 107 13 0 19 7 19 24 0 13 7 29 15 36 13 11 13 27 -1 97 -2 13 -16
30 -30 40 -25 16 -27 16 -40 -2 -8 -10 -14 -33 -14 -51 0 -44 -41 -94 -62 -76
-20 16 -28 6 -28 -34 0 -19 -6 -34 -15 -38 -8 -3 -15 -14 -15 -24 0 -20 -29
-52 -47 -52 -6 0 -14 -16 -17 -35 -5 -26 -14 -39 -32 -45 -34 -13 -52 -32 -59
-63 -4 -14 -13 -28 -21 -31 -8 -3 -11 -12 -7 -23 5 -14 3 -16 -7 -6 -17 16
-38 6 -56 -29 -8 -16 -19 -26 -25 -22 -16 9 -59 -36 -59 -62 0 -26 -13 -36
-44 -38 -20 -1 -21 -8 -26 -100 -3 -68 -9 -101 -18 -104 -32 -10 -43 -35 -40
-86 3 -49 2 -51 -23 -54 -15 -2 -38 -16 -53 -33 -15 -16 -36 -29 -50 -29 -39
0 -84 -29 -95 -60 -7 -20 -17 -30 -30 -30 -12 0 -21 5 -21 10 0 6 -11 10 -25
10 -16 0 -25 -6 -25 -16 0 -12 -7 -14 -30 -9 -23 5 -32 3 -36 -10 -5 -12 -14
-15 -31 -10 -29 7 -66 -3 -58 -16 4 -5 -1 -9 -10 -9 -8 0 -18 -7 -21 -15 -8
-21 -26 -19 -47 5 -22 26 -57 26 -64 0 -6 -21 -29 -27 -35 -9 -2 6 -25 13 -51
16 -58 7 -77 31 -47 58 11 10 23 34 26 54 4 20 14 45 24 56 10 11 23 30 29 42
6 13 21 23 32 23 19 0 42 36 33 52 -3 4 6 12 18 19 12 7 31 23 42 36 10 14 28
29 40 33 17 7 18 9 4 9 -22 1 -22 4 -4 40 13 23 21 28 63 30 54 2 66 10 68 43
1 20 8 24 52 28 52 5 83 23 83 45 0 8 14 16 30 20 17 4 30 11 30 16 0 5 6 9
14 9 19 0 46 -45 53 -87 8 -46 22 -50 68 -19 21 14 44 26 51 26 8 0 14 6 14
13 1 6 16 24 35 38 68 51 111 96 129 133 12 27 25 38 47 43 16 3 29 9 29 12 0
4 10 18 21 30 18 19 19 25 8 32 -11 6 -8 14 15 38 17 17 29 41 29 56 0 19 7
29 23 35 19 8 24 17 24 47 0 30 5 40 23 48 16 8 22 18 22 43 0 29 6 37 39 56
22 12 44 30 50 41 21 36 87 118 111 137 l25 19 0 -24 c0 -14 -6 -27 -12 -29
-9 -3 -7 -10 6 -23 13 -13 17 -28 13 -51 -5 -32 15 -56 29 -33 3 6 19 7 36 4
l30 -7 -7 72 c-7 69 -25 158 -39 191 -5 12 1 20 23 29 34 14 45 38 36 79 -4
18 2 52 16 92 18 50 23 90 25 182 2 117 2 117 -21 117 -34 0 -55 -10 -55 -26
0 -17 17 -18 23 -1 10 29 15 -2 6 -38 -6 -22 -15 -69 -20 -105 -6 -35 -27
-100 -48 -145 -21 -44 -41 -90 -45 -102 -4 -11 -13 -27 -21 -33 -8 -7 -15 -21
-15 -31 0 -11 -4 -19 -9 -19 -5 0 -12 -13 -16 -29 -3 -16 -17 -39 -31 -51 -13
-13 -24 -27 -24 -32 0 -5 -10 -19 -21 -31 l-21 -22 7 65 c5 36 7 76 6 90 -7
70 10 212 28 234 6 7 9 20 5 29 -6 15 17 69 42 97 9 11 14 54 16 140 2 88 7
125 16 128 6 2 12 -5 12 -15 1 -14 3 -13 15 7 12 22 14 23 21 7 3 -10 4 -37 1
-61 -3 -23 -4 -52 0 -64 6 -24 33 -31 33 -8 0 7 12 21 26 30 33 22 29 56 -10
74 -24 12 -27 18 -22 44 3 18 1 37 -5 45 -10 11 -15 11 -30 -3 -18 -16 -19
-15 -19 25 0 23 -7 58 -16 79 -28 64 -26 76 21 105 23 15 48 41 55 57 7 17 16
30 20 30 16 0 30 58 31 130 2 93 -21 176 -66 234 -18 24 -30 48 -27 52 4 4 1
4 -5 0 -7 -4 -13 -3 -13 2 0 5 -12 20 -27 34 -62 58 -73 68 -73 63 0 -2 -21 5
-46 15 -91 40 -199 20 -269 -49 -48 -48 -61 -76 -73 -166 -10 -77 0 -141 32
-209 26 -54 41 -72 121 -139 40 -33 171 -97 200 -97 8 0 15 -8 15 -17 0 -10 9
-33 20 -51 11 -18 20 -44 20 -58 0 -23 -3 -25 -24 -20 -20 5 -25 1 -29 -20 -2
-15 0 -42 5 -61 9 -33 1 -102 -9 -75 -3 6 -11 12 -19 12 -9 0 -13 -4 -10 -9 3
-5 -3 -11 -14 -14 -14 -4 -18 -10 -13 -23 5 -12 3 -15 -6 -9 -10 6 -11 2 -5
-16 4 -13 8 -33 9 -44 1 -15 9 -20 31 -20 35 0 42 -22 20 -67 -9 -17 -16 -39
-16 -50 0 -10 -6 -18 -14 -18 -19 0 -30 -34 -19 -57 12 -27 9 -44 -15 -83 -22
-35 -24 -44 -28 -160 -4 -131 -15 -186 -38 -196 -25 -11 -33 -43 -14 -55 11
-8 11 -10 -1 -18 -8 -5 -12 -18 -8 -31 3 -13 0 -23 -9 -27 -8 -3 -14 -13 -14
-23 0 -9 -9 -28 -21 -41 -11 -13 -24 -30 -29 -38 -18 -33 -30 3 -30 94 0 89 1
93 24 99 27 7 36 30 36 98 0 29 -6 52 -16 62 -18 18 -40 21 -49 5 -4 -6 -14
-8 -22 -5 -13 5 -14 0 -9 -30 6 -31 9 -159 4 -204 -5 -55 4 -150 15 -162 18
-18 28 -68 13 -68 -18 0 -84 -58 -91 -80 -4 -11 -15 -20 -25 -20 -18 0 -60
-48 -60 -68 0 -6 -10 -18 -22 -26 -12 -9 -19 -16 -15 -16 4 0 0 -11 -9 -25
-16 -24 -18 -25 -35 -9 -23 21 -24 34 -2 79 12 26 23 35 37 33 17 -3 22 3 24
32 3 31 11 78 44 245 5 27 7 61 5 75 -3 14 -2 56 2 95 8 70 -8 133 -30 120 -5
-4 -9 1 -9 10 0 10 5 13 12 9 8 -5 9 -2 5 9 -3 9 -2 19 3 22 19 11 10 43 -12
49 -18 5 -20 8 -9 15 8 5 10 14 6 21 -5 9 -4 11 3 6 7 -4 12 -15 13 -24 0 -14
2 -13 9 3 11 26 12 35 3 34 -5 -1 -18 2 -30 6 -19 6 -21 14 -20 61 1 33 6 55
14 58 7 3 13 15 13 26 0 11 11 30 25 42 18 16 22 25 15 38 -5 10 -7 41 -3 70
l6 53 -31 -6 c-25 -5 -32 -3 -37 13 -3 10 -22 25 -41 32 -18 6 -34 18 -34 26
0 8 -14 19 -30 25 -17 6 -33 21 -36 32 -9 27 -35 45 -57 39 -11 -3 -19 1 -23
13 -24 73 -67 139 -84 128 -5 -3 -12 20 -15 50 -7 51 -10 56 -39 63 l-31 8 -3
212 c-1 130 -6 212 -12 212 -6 0 -10 9 -10 20 0 10 -6 23 -14 27 -22 13 -9 70
18 77 16 5 18 8 7 15 -8 5 -9 11 -3 15 16 9 2 44 -19 49 -10 3 -19 1 -19 -4 0
-5 -6 -9 -13 -9 -32 0 -43 -98 -19 -167 9 -29 9 -33 -7 -33 -27 0 -45 27 -47
69 -2 73 -4 81 -19 81 -9 0 -18 12 -22 30 -4 21 -13 32 -30 36 -23 6 -24 9
-22 91 1 70 5 85 20 94 27 14 23 36 -6 43 -14 4 -25 14 -25 22 0 12 6 15 26
10 16 -4 35 -1 50 8 12 9 30 13 38 10 22 -8 56 14 56 37 0 43 -97 42 -141 -2
-10 -10 -27 -19 -37 -19 -10 0 -22 -4 -27 -8 -6 -5 -36 -14 -68 -21 -70 -15
-117 -40 -117 -62 0 -9 -16 -27 -36 -40 -24 -16 -41 -37 -50 -64 -7 -22 -29
-53 -48 -70 -19 -16 -42 -48 -52 -71 -9 -22 -30 -48 -46 -57 -25 -15 -28 -21
-28 -72 l0 -55 -35 0 -35 0 0 -58 c0 -68 -5 -77 -33 -57 -18 13 -22 11 -41
-12 -11 -15 -23 -45 -26 -67 -4 -33 -9 -42 -28 -44 -16 -2 -30 -17 -44 -48
-12 -24 -25 -44 -30 -44 -4 0 -17 -18 -28 -40 -11 -22 -27 -40 -35 -40 -8 0
-29 -27 -47 -60 -18 -33 -38 -60 -45 -60 -15 0 -63 -58 -63 -75 0 -21 -38 -38
-67 -30 -21 5 -24 3 -18 -14 7 -23 -4 -71 -16 -71 -5 0 -9 10 -10 23 -1 17 -3
14 -10 -11 -8 -27 -14 -32 -29 -27 -27 9 -52 -18 -45 -47 5 -19 0 -26 -26 -37
-42 -18 -99 -69 -94 -84 4 -13 -116 -120 -141 -125 -8 -2 -14 -11 -14 -20 0
-9 -6 -28 -14 -42 -7 -14 -21 -38 -30 -55 -12 -23 -16 -25 -16 -11 0 23 -13
14 -15 -12 -3 -20 -11 -43 -31 -91 -12 -27 -18 -32 -25 -20 -6 10 -9 8 -9 -12
0 -35 -38 -145 -56 -160 -9 -8 -14 -32 -14 -73 0 -39 -5 -69 -15 -82 -19 -25
-19 -48 0 -40 8 3 15 1 15 -4 0 -4 13 -11 30 -15 36 -8 40 -35 10 -65 -25 -25
-25 -26 0 -33 25 -6 40 -45 40 -104 0 -37 -3 -44 -16 -39 -9 3 -22 6 -29 6 -8
0 -17 9 -20 20 -4 11 -21 35 -39 53 -26 25 -34 43 -39 84 -3 29 -12 71 -18 94
-12 39 -14 41 -45 36 -59 -10 -74 0 -74 48 0 23 -3 57 -6 74 -6 29 -9 31 -38
26 l-31 -6 4 51 c2 29 -2 57 -8 63 -6 6 -11 30 -11 53 0 23 -9 62 -20 87 -12
26 -23 80 -27 125 l-6 78 32 13 c40 17 40 43 0 83 -30 31 -30 31 -29 137 1 58
0 135 -2 171 -3 54 -1 67 14 78 16 12 18 26 14 105 -2 51 -2 77 1 60 2 -18 8
-33 12 -33 12 0 22 101 21 208 -1 58 3 92 10 92 5 0 10 -9 10 -19 0 -52 47
-33 55 22 12 81 28 152 37 162 4 5 8 16 8 25 0 10 7 31 16 48 12 26 22 32 47
32 47 1 67 34 64 105 -2 45 2 58 16 66 9 6 17 17 17 24 0 9 10 15 24 15 25 0
36 16 36 55 0 15 20 43 58 80 88 88 101 98 133 112 18 8 35 25 42 43 6 16 14
30 18 30 13 0 145 93 179 126 26 24 45 34 68 34 25 0 33 5 38 24 7 31 28 36
141 36 87 0 93 1 112 26 12 15 21 33 21 41 0 9 6 13 15 9 23 -8 45 4 45 25 0
20 4 21 170 24 117 2 146 11 188 56 l37 39 170 0 c159 0 171 -1 183 -20 17
-27 56 -26 71 3 11 20 18 22 77 19 44 -3 70 0 78 9 8 9 8 10 -1 5 -7 -4 -13
-4 -13 1 0 13 14 30 30 35 8 3 -14 4 -49 2 -36 -1 -72 1 -80 5 -26 14 -107 16
-316 10z m130 -929 c7 -104 10 -120 26 -125 11 -4 22 -18 25 -33 7 -32 11 -42
23 -62 6 -8 13 -41 16 -73 5 -48 9 -56 20 -47 8 6 11 19 8 28 -4 13 -3 14 6 6
7 -6 15 -49 19 -95 7 -78 9 -84 31 -87 22 -4 23 -6 16 -58 -6 -49 -4 -59 19
-89 16 -20 26 -47 26 -67 0 -18 9 -44 20 -58 11 -14 20 -34 20 -45 0 -11 7
-30 15 -41 8 -12 11 -24 7 -28 -3 -4 1 -4 11 0 10 3 17 1 17 -5 0 -7 -35 -11
-105 -11 -87 0 -105 -3 -105 -15 0 -8 -8 -15 -18 -15 -10 0 -37 -9 -60 -20
-23 -11 -57 -23 -75 -26 -17 -4 -36 -12 -42 -18 -5 -6 -33 -22 -62 -35 -31
-14 -54 -32 -58 -45 -4 -13 -8 -16 -12 -8 -8 21 -36 14 -30 -8 3 -11 1 -20 -4
-20 -5 0 -9 -22 -9 -50 0 -27 5 -50 10 -50 6 0 10 3 10 8 0 11 57 34 77 30 10
-2 21 -19 28 -43 5 -22 20 -51 33 -63 15 -15 22 -32 20 -50 -5 -39 41 -61 141
-68 77 -6 83 -5 88 14 3 11 16 23 29 26 35 9 64 42 64 71 0 14 6 25 13 25 8 0
28 20 46 44 26 38 31 53 30 96 -1 28 2 55 8 61 5 5 41 9 79 7 65 -3 70 -5 82
-32 8 -15 27 -36 43 -45 18 -10 29 -24 29 -38 0 -13 5 -23 10 -23 6 0 20 -21
31 -47 17 -40 18 -51 8 -76 -7 -17 -12 -52 -10 -78 1 -30 -2 -49 -8 -49 -17 0
-13 -50 5 -57 13 -5 15 -16 10 -62 -4 -38 -1 -72 9 -106 12 -37 15 -93 14
-218 -1 -168 -1 -168 -25 -177 -15 -6 -24 -18 -24 -30 0 -11 -8 -24 -17 -27
-21 -8 -143 -130 -143 -144 0 -5 -16 -15 -35 -23 -26 -11 -35 -21 -35 -39 0
-21 -6 -25 -42 -30 -23 -3 -47 -13 -54 -21 -6 -9 -16 -16 -22 -16 -6 0 -15 -7
-20 -16 -5 -8 -20 -21 -33 -28 -13 -6 -30 -24 -37 -39 -9 -18 -21 -27 -36 -27
-15 0 -27 -9 -34 -25 -8 -17 -20 -25 -38 -25 -22 0 -24 -3 -15 -14 14 -17 -2
-32 -21 -20 -6 4 -8 3 -4 -4 9 -14 -15 -21 -37 -10 -10 5 -23 8 -29 6 -15 -5
-21 -48 -6 -48 18 0 3 -10 -23 -15 -13 -3 -25 -9 -27 -15 -5 -13 -192 -14
-192 -1 0 5 -13 14 -30 20 -16 5 -30 17 -30 25 0 11 -14 16 -57 18 -55 3 -58
4 -67 35 -7 27 -15 34 -45 39 -61 10 -71 15 -71 35 0 15 -7 19 -34 19 -28 0
-35 4 -38 22 -2 13 -11 24 -22 26 -23 5 -69 49 -79 75 -5 13 -18 17 -52 17
-41 0 -45 2 -45 25 0 19 -5 25 -21 25 -24 0 -109 83 -109 106 0 8 -11 20 -25
26 -14 6 -25 17 -25 24 0 7 -10 14 -22 16 -17 2 -24 11 -26 32 -3 26 -6 28
-37 23 l-33 -5 1 62 c1 57 -2 67 -29 98 l-30 35 1 144 c1 79 5 179 10 222 8
75 7 77 -14 77 -16 0 -21 -6 -21 -26 0 -14 -4 -23 -10 -19 -16 10 -11 51 9 69
11 10 21 36 24 63 6 52 31 78 85 89 40 8 52 -1 27 -20 -17 -13 -18 -17 -5 -57
30 -95 68 -125 130 -101 20 8 30 6 47 -7 14 -12 32 -16 53 -13 29 4 31 7 27
31 -6 31 17 239 28 250 3 2 -7 18 -22 34 -20 22 -23 28 -10 24 10 -4 16 -3 13
1 -2 4 -1 14 4 22 8 13 -6 48 -25 62 -6 4 -2 8 8 8 9 0 17 -7 17 -16 0 -14 3
-14 15 -4 9 7 14 19 11 27 -3 7 -1 13 4 13 6 0 10 8 10 18 0 10 -7 19 -15 19
-9 0 -15 -10 -15 -26 -1 -25 -1 -25 -15 7 -18 40 -14 51 31 82 20 13 41 34 47
47 6 13 16 23 23 23 19 0 62 57 74 98 11 43 31 74 82 130 28 31 42 39 58 35
15 -4 29 2 46 21 14 14 20 26 14 26 -23 0 -9 40 20 55 24 12 30 22 30 48 0 24
7 37 30 52 20 13 31 31 35 55 5 30 12 38 38 46 30 9 32 12 35 64 l3 56 35 -4
c50 -6 67 12 60 65 -5 41 -4 44 21 54 34 13 43 26 43 62 0 22 4 27 25 27 18 0
28 7 35 25 7 19 17 25 39 25 l29 0 7 -120z m265 -80 c0 -5 -2 -10 -4 -10 -3 0
-8 5 -11 10 -3 6 -1 10 4 10 6 0 11 -4 11 -10z m1015 -62 c30 -36 59 -91 69
-130 l6 -28 -265 0 -265 0 -1 33 c-2 57 2 88 17 123 l14 34 200 0 199 -1 26
-31z m363 -745 c-5 -25 -28 -28 -28 -4 0 12 6 21 16 21 9 0 14 -7 12 -17z
m-88 -42 c0 -32 -6 -24 -14 19 -4 25 -3 31 4 20 5 -8 10 -26 10 -39z m-2423
-48 c4 -11 -32 -25 -41 -15 -8 8 15 33 27 29 6 -2 12 -8 14 -14z m-41 -35 c4
-7 3 -8 -5 -4 -8 5 -10 -3 -7 -29 4 -31 2 -34 -10 -24 -17 14 -18 41 -2 57 15
15 15 15 24 0z m2530 -290 c4 -7 3 -8 -4 -4 -7 4 -12 1 -12 -9 0 -20 -22 -15
-28 6 -3 11 -2 11 7 -1 9 -13 11 -13 11 3 0 19 15 23 26 5z m34 2 c0 -5 -2
-10 -4 -10 -3 0 -8 5 -11 10 -3 6 -1 10 4 10 6 0 11 -4 11 -10z m-90 -24 c0
-3 -4 -8 -10 -11 -5 -3 -10 -1 -10 4 0 6 5 11 10 11 6 0 10 -2 10 -4z m100 -6
c0 -5 -2 -10 -4 -10 -3 0 -8 5 -11 10 -3 6 -1 10 4 10 6 0 11 -4 11 -10z
m-108 -42 c-7 -7 -12 -8 -12 -2 0 14 12 26 19 19 2 -3 -1 -11 -7 -17z m147
-77 c16 -10 6 -31 -14 -31 -7 0 -15 -8 -18 -17 -2 -10 -4 -1 -3 20 0 37 9 44
35 28z m-3003 -58 c-22 -90 -24 -125 -21 -269 2 -87 4 -162 4 -166 1 -5 12 -8
25 -8 27 0 37 -19 31 -62 -2 -16 1 -28 7 -28 6 0 4 -7 -3 -17 -11 -13 -12 -17
-1 -21 10 -3 8 -8 -5 -17 -14 -10 -15 -16 -6 -25 14 -15 33 -5 33 18 0 15 2
15 10 2 5 -8 10 -25 10 -37 0 -20 5 -23 35 -23 19 0 35 -5 35 -11 0 -5 -6 -7
-12 -3 -7 4 -5 -2 5 -13 9 -11 17 -25 17 -32 0 -8 5 -9 19 -1 29 15 31 13 24
-21 -4 -24 -1 -33 16 -45 11 -8 21 -24 21 -35 0 -14 7 -19 26 -19 20 0 24 -4
20 -18 -4 -10 -7 -42 -7 -70 -1 -29 -3 -52 -4 -52 -15 0 -35 15 -35 26 0 8 -8
18 -17 21 -51 19 -99 102 -53 90 11 -3 20 -1 20 3 0 5 3 16 6 25 6 14 1 16
-34 14 -23 -2 -45 0 -49 5 -4 4 -22 14 -40 21 -34 15 -65 69 -65 115 0 18 -12
34 -41 56 -36 27 -44 40 -59 97 -10 36 -18 75 -18 86 0 23 -5 26 -61 35 -36 6
-37 7 -44 63 -5 45 -4 59 8 68 9 6 21 42 28 81 16 89 33 123 70 136 16 5 29
15 29 22 0 21 23 36 53 36 27 0 29 -2 23 -27z m2647 -20 c2 -5 7 -21 11 -38
l8 -30 -21 24 c-22 25 -28 51 -12 51 6 0 12 -3 14 -7z m-476 -110 c1 -36 1
-37 -6 -8 -6 26 -5 45 3 45 1 0 2 -17 3 -37z m53 27 c0 -5 -7 -10 -15 -10 -8
0 -15 5 -15 10 0 6 7 10 15 10 8 0 15 -4 15 -10z m766 -14 c11 -45 1 -71 -28
-74 -24 -3 -28 0 -28 22 0 61 43 101 56 52z m-329 -28 c-3 -7 -5 -2 -5 12 0
14 2 19 5 13 2 -7 2 -19 0 -25z m-2292 -858 c3 -5 -1 -10 -10 -10 -9 0 -13 5
-10 10 3 6 8 10 10 10 2 0 7 -4 10 -10z m261 -108 c-17 -16 -18 -16 -5 5 7 12
15 20 18 17 3 -2 -3 -12 -13 -22z m69 -32 c-3 -5 -1 -10 6 -10 7 0 10 -3 6 -6
-9 -9 -28 6 -22 17 4 5 8 9 11 9 3 0 2 -4 -1 -10z m626 -43 c-10 -9 -11 -8 -5
6 3 10 9 15 12 12 3 -3 0 -11 -7 -18z m-254 -289 c-2 -12 -9 -24 -15 -26 -7
-2 -12 -12 -12 -23 0 -10 -4 -19 -10 -19 -5 0 -10 20 -10 45 0 41 2 45 25 45
20 0 24 -4 22 -22z"/>
<path d="M2287 3258 c-7 -25 10 -61 24 -53 5 4 9 22 9 41 0 39 -24 48 -33 12z"/>
<path d="M2083 2793 c-34 -3 -42 -8 -45 -26 -2 -18 -11 -23 -45 -25 -33 -2
-42 -7 -45 -24 -2 -16 -11 -21 -41 -23 -27 -1 -43 -9 -55 -26 -16 -23 -21 -31
-50 -78 -8 -13 -9 -21 -2 -21 5 0 10 5 10 11 0 8 4 8 14 0 17 -14 56 5 56 26
0 8 13 13 33 13 34 1 72 23 72 43 0 7 12 11 28 10 17 -1 27 3 27 12 0 7 12 18
28 23 15 6 21 11 15 11 -7 1 -13 6 -13 11 0 6 65 10 175 10 l175 0 0 24 c0 13
-7 27 -16 30 -16 6 -248 5 -321 -1z"/>
<path d="M1536 1668 c-9 -12 -16 -27 -16 -32 0 -5 -8 -18 -17 -28 -14 -16 -15
-23 -5 -39 10 -16 10 -20 -3 -25 -26 -11 -18 -42 13 -46 23 -3 27 -8 30 -40 2
-26 10 -41 23 -49 12 -6 18 -17 15 -25 -4 -11 8 -14 63 -14 73 0 81 5 81 56 0
20 -6 25 -39 30 -37 6 -40 9 -43 43 -2 28 -7 36 -23 36 -14 0 -21 8 -24 25 -1
14 -8 28 -15 32 -7 5 -5 8 7 8 9 0 17 6 17 14 0 8 10 16 23 18 16 2 22 10 22
28 0 23 -4 25 -47 28 -39 3 -49 -1 -62 -20z"/>
<path d="M1690 1106 c0 -31 3 -34 38 -40 48 -8 146 -8 166 0 16 6 21 30 10 58
-5 13 -25 16 -110 16 l-104 0 0 -34z"/>
<path d="M4015 1880 c3 -5 8 -10 11 -10 2 0 4 5 4 10 0 6 -5 10 -11 10 -5 0
-7 -4 -4 -10z"/>
<path d="M2495 4131 c-16 -7 -10 -10 28 -16 50 -8 72 -1 47 15 -18 12 -48 12
-75 1z"/>
<path d="M3032 3981 c-17 -10 -4 -41 17 -41 9 0 26 -3 39 -6 23 -6 30 9 14 32
-10 15 -54 25 -70 15z"/>
<path d="M3240 3960 c-24 -45 29 -110 88 -110 11 0 28 -11 38 -25 21 -27 34
-32 34 -12 0 7 -20 26 -45 41 -49 32 -53 40 -29 74 12 18 13 26 4 37 -19 23
-77 19 -90 -5z"/>
<path d="M3500 3740 c-10 -6 -11 -10 -2 -10 6 0 12 -6 12 -13 0 -7 5 -18 12
-25 9 -9 14 -6 23 11 17 34 -12 59 -45 37z"/>
<path d="M2551 3648 c0 -13 3 -17 6 -10 7 17 33 15 33 -3 0 -8 5 -15 10 -15
11 0 13 11 4 34 -3 9 -17 16 -30 16 -18 0 -24 -5 -23 -22z"/>
<path d="M3710 3524 c0 -8 4 -13 9 -9 5 3 13 1 16 -5 4 -7 -6 -9 -29 -7 -20 2
-36 2 -36 -1 0 -10 44 -82 50 -82 14 0 60 42 60 54 0 20 -39 66 -56 66 -8 0
-14 -7 -14 -16z m48 -62 c2 -7 -3 -12 -12 -12 -9 0 -16 7 -16 16 0 17 22 14
28 -4z"/>
<path d="M3770 3284 c0 -8 5 -12 10 -9 6 3 10 10 10 16 0 5 -4 9 -10 9 -5 0
-10 -7 -10 -16z"/>
<path d="M1204 3235 c-4 -9 -2 -28 4 -43 6 -15 13 -36 15 -47 2 -11 7 3 11 32
4 29 5 57 1 63 -9 15 -25 12 -31 -5z"/>
<path d="M1344 3185 c5 -24 -1 -56 -19 -109 -14 -41 -33 -101 -41 -133 -11
-42 -26 -69 -54 -98 -21 -22 -50 -69 -65 -105 -15 -36 -45 -98 -67 -137 -22
-40 -36 -73 -31 -73 4 0 -25 -21 -65 -46 -39 -26 -72 -52 -72 -60 0 -17 -59
-104 -71 -104 -5 0 -8 -3 -8 -7 6 -40 -41 -83 -90 -83 -27 0 -32 -3 -21 -10 8
-5 26 -10 40 -10 20 0 22 -2 10 -10 -8 -5 -10 -10 -5 -10 6 0 -3 -7 -19 -15
-16 -9 -39 -12 -53 -9 -20 6 -24 11 -19 33 l7 26 -20 -25 c-22 -28 -16 -42 30
-66 27 -14 29 -13 75 36 54 57 80 94 119 168 26 50 29 52 68 52 22 0 37 3 33
8 -4 4 -13 7 -18 7 -27 0 -14 23 27 49 25 16 45 34 45 40 0 6 8 16 18 23 25
15 82 102 82 125 0 10 4 18 8 18 11 0 32 45 32 68 0 9 14 34 30 56 16 21 39
68 51 103 12 36 28 77 35 92 8 14 14 35 14 46 0 17 22 102 45 174 5 17 2 21
-15 21 -20 0 -22 -4 -16 -35z"/>
<path d="M1196 3093 c-9 -9 -7 -33 3 -33 12 0 22 28 12 34 -5 3 -11 3 -15 -1z"/>
<path d="M3857 3073 c-8 -8 -9 -86 -1 -106 4 -10 14 -12 37 -8 29 6 32 10 35
50 2 23 -2 49 -9 57 -12 14 -51 19 -62 7z"/>
<path d="M1160 3060 c-1 -3 -4 -15 -5 -28 -1 -15 1 -20 7 -14 6 6 8 18 5 28
-3 11 -6 17 -7 14z"/>
<path d="M1191 3034 c0 -11 3 -14 6 -6 3 7 2 16 -1 19 -3 4 -6 -2 -5 -13z"/>
<path d="M1177 2990 c-3 -11 -1 -20 4 -20 5 0 9 9 9 20 0 11 -2 20 -4 20 -2 0
-6 -9 -9 -20z"/>
<path d="M3850 2805 c0 -52 3 -64 18 -67 34 -7 62 4 68 28 10 41 -8 75 -49 89
l-37 13 0 -63z"/>
<path d="M3978 2613 c7 -3 16 -2 19 1 4 3 -2 6 -13 5 -11 0 -14 -3 -6 -6z"/>
<path d="M1340 2583 c-1 -19 -22 -53 -34 -53 -3 0 -6 8 -7 18 0 14 -2 14 -9
-3 -13 -29 -12 -35 5 -35 9 0 20 -10 25 -22 8 -22 9 -22 9 5 1 23 5 27 31 27
20 0 30 -5 30 -15 0 -8 3 -15 8 -15 12 0 8 58 -5 72 -7 6 -13 18 -13 25 0 20
-40 16 -40 -4z"/>
<path d="M1163 2339 c6 -49 12 -56 31 -40 17 14 28 51 15 51 -5 0 -9 7 -9 15
0 9 -9 15 -21 15 -19 0 -21 -4 -16 -41z"/>
<path d="M3600 2192 c0 -27 -6 -70 -14 -95 -8 -26 -10 -49 -6 -52 4 -3 10 2
14 10 3 8 12 15 21 15 8 0 15 8 15 18 0 9 2 47 4 85 3 60 1 67 -15 67 -16 0
-19 -8 -19 -48z"/>
<path d="M883 2094 c-7 -20 9 -49 27 -49 24 0 35 31 17 49 -20 20 -36 20 -44
0z"/>
<path d="M3650 2080 c0 -11 4 -20 9 -20 11 0 22 26 14 34 -12 12 -23 5 -23
-14z"/>
<path d="M3590 2000 c-8 -5 -12 -12 -9 -15 4 -3 12 1 19 10 14 17 11 19 -10 5z"/>
<path d="M3527 1948 c-16 -12 -17 -21 -10 -73 8 -56 10 -58 21 -37 7 12 12 45
10 73 -3 46 -4 49 -21 37z"/>
<path d="M3070 1910 c0 -5 -3 -9 -7 -7 -5 1 -9 -1 -10 -5 -2 -5 -1 -8 2 -8 3
0 9 0 14 0 5 0 11 7 15 15 3 8 1 15 -4 15 -6 0 -10 -4 -10 -10z"/>
<path d="M838 1903 c-10 -2 -18 -13 -18 -24 0 -23 15 -17 30 12 6 10 9 18 8
18 -2 -1 -11 -3 -20 -6z"/>
<path d="M3205 1900 c-8 -13 4 -32 16 -25 12 8 12 35 0 35 -6 0 -13 -4 -16
-10z"/>
<path d="M821 1824 c0 -11 3 -14 6 -6 3 7 2 16 -1 19 -3 4 -6 -2 -5 -13z"/>
<path d="M607 1696 c-8 -20 30 -96 48 -96 25 0 26 18 1 61 -26 47 -41 58 -49
35z"/>
<path d="M3577 1660 c3 -11 7 -20 9 -20 2 0 4 9 4 20 0 11 -4 20 -9 20 -5 0
-7 -9 -4 -20z"/>
<path d="M3680 1434 c0 -29 21 -54 45 -54 22 0 25 4 25 35 0 33 -2 35 -35 35
-25 0 -35 -4 -35 -16z"/>
<path d="M2526 832 c-3 -5 1 -9 9 -9 8 0 12 4 9 9 -3 4 -7 8 -9 8 -2 0 -6 -4
-9 -8z"/>
<path d="M3247 302 c-20 -22 -22 -63 -5 -80 32 -32 109 -1 103 41 -9 51 -67
73 -98 39z"/>
<path d="M1874 291 c-48 -25 -112 -80 -119 -101 -4 -11 -15 -20 -25 -20 -9 0
-34 -18 -54 -40 -20 -22 -42 -40 -49 -40 -7 0 -29 -11 -49 -25 -27 -18 -35
-30 -31 -45 4 -16 14 -20 52 -20 39 0 51 5 80 35 19 19 42 35 52 35 10 0 21 9
24 21 8 24 44 40 73 32 15 -3 31 5 55 28 67 68 83 111 51 143 -18 19 -20 19
-60 -3z"/>
<path d="M2524 66 c-3 -8 -4 -25 -2 -38 3 -20 9 -23 51 -26 l48 -3 -3 38 c-3
37 -4 38 -46 41 -30 2 -44 -1 -48 -12z"/>
<path d="M2792 68 c-7 -7 -12 -25 -12 -40 0 -26 2 -28 44 -28 38 0 44 3 48 24
3 13 1 31 -4 40 -11 19 -59 21 -76 4z"/>
<path d="M3026 61 c-11 -13 -15 -27 -11 -40 9 -30 91 -31 100 -1 16 51 -52 82
-89 41z"/>
<path d="M3247 73 c-4 -3 -7 -21 -7 -40 0 -33 1 -33 45 -33 41 0 45 2 45 24 0
43 -10 56 -44 56 -18 0 -36 -3 -39 -7z"/>
<path d="M3470 66 c-6 -8 -10 -25 -8 -38 3 -20 9 -23 43 -23 34 0 40 3 43 23
7 45 -49 72 -78 38z"/>
<path d="M1822 57 c-6 -7 -9 -23 -5 -35 7 -27 60 -31 70 -6 14 36 -41 71 -65
41z"/>
<path d="M2042 33 c3 -18 38 -29 64 -19 26 10 3 36 -33 36 -27 0 -34 -4 -31
-17z"/>
</g>
</svg>
